<svg id="Layer_1" data-name="Layer 1" xmlns="http://www.w3.org/2000/svg" viewBox="0 0 1543.94 599.34"><defs><style>.cls-1,.cls-2{fill:#fff;}.cls-2{opacity:0.1;}</style></defs><path class="cls-1" d="M1009.15,169.73c-1.24-20.3-23.34-46.64-86.27-41.92a305.87,305.87,0,0,0-56.12,9.13c-3.22-2.86-6.62-5.82-9.89-8.82,33.19-10.55,64.29-25.77,58.07-44.79-6.44-19.59-44-16.63-76.86.27s-24.54,32.69-13.15,44.34c5.56,5.69,13.28,10.77,19.81,16.06-15.67,6-25.68,12.18-30.45,16.2C804,168.93,804,164,803.75,162.49s12.26-18.09,9-16.59-18,13.28-33.36,27.8-25.86,11.16-24-.09,24.27-44.74,30.49-53.08,11-13.24,5.21-18.62-18.1-8.83-18.45-6.62-2.78,8.82-4.81,8.43a8.63,8.63,0,0,0-2-7.5c-1.81-2-22.55-17.52-62,9.88-34.86,24.27-41.08,48.41-41.08,48.41-1.9.53-9,.88-15-1.37,20.08-26.48,24.58-44.79,17.43-53.08-8.29-9.67-40.9-5.12-38.78,30.84.66,11.52,4.63,18.58,9.66,22.81A195,195,0,0,1,616.7,175.2c-32.48,30.76-39.36,23.65-39.27,17.65s9.71-25.5,15.4-37.86,14.34-24.93,8.25-33.23S568,117.22,568,117.22s4.23,3.18,5.56,7S568,143.39,561.5,154.9s-18.27,24-29.7,36.23-29.87,25.9-31.46,17.12,22.95-47.61,32.3-62.08,5.65-26.57-7.19-28-16.11.88-41.39,21.35c-17.83,14.48-36.63,35.26-36.63,35.26L445.8,173s6.93-10.06,18.18-25.2,2.38-22.54-8.25-22.94-22.11,4.76-22.11,4.76c5.65,2.87,4.72,5.43-7.06,29.22s-22.94,35.69-36.44,48.36-35.57,23.56-25-2.78,38.17-51.89,37.24-55.82-14.87-12.09-17.74-12.8-8.73,6.84-8.73,6.84c-.18-4.41-22.68-28.81-63.59.62S261,195.94,261,195.94C200.2,252,144.2,276.47,107.27,283.22s-77.35-1-65.7-58.51,51.54-90.24,51.54-90.24c-42.63,53.09-38.88,84.37-38.88,84.37,19.86-75.37,127.39-174,200.64-193.18s72.19,9.66,31.07,48.93-82.17,44.84-82.17,44.84c45.89,38.69,143-30.19,134.81-82.61s-80.31-42-150.25-11.16S50.48,123.57,23.26,170.7s-48.54,133,45.14,133c97.43,0,182.32-84.63,185.9-86.8s6.53-5.95,4.67,5.17,7.59,23.07,24.94,23.07,35.83-14.51,45.49-26.78c5.6-7.06,10.54-10.46,6.93-2.25s.13,18,16.5,19.37,34.46-14.6,36.05-16.28,7.68-7.06,6.8-3.35-5.17,7.94-.45,10.85,20.08,6.4,21.27,3.13S429.34,205.87,434,201s52.95-55.38,61.86-60.94,10.46-2.95,9.71-.53-3.36,8.74-20.08,38.48-15.62,48.85,7.59,48.85,58.55-45,58.55-45l3.71.22s0,2-2.16,7.46-4.94,28.64,19,25.64,35.38-14.87,64.6-48.58c2.51-2.92,4.81-5.7,7-8.39a38,38,0,0,0,18.49,1.19s.66,3-1.85,15.54,6.09,26,23.69,27.88,41.66-24.31,43.77-27.44,8.83-5.25,4.59.53-5.91,19.85,14.3,22.15,43.82-25.37,46.33-26.87,3.18-.36,3.58.39-3,4.19-5.21,16,11.3,21.71,26.92,21.71,33.58-1,52.81-18.32,17.12-34.11,10.15-40.81c-1.59-1.5-4.37-4-7.76-7.15.44-.13,1-.18,1.45-.31,69.28-16.06,124-1,120.69,32.7-3.14,32.69-41.57,51-44,52.06C987.4,221.44,1010.43,190,1009.15,169.73ZM350.27,180c-4.63,8.34-39.58,48.36-53.17,49.29s-15.8-19,13.24-51.32,47-36.31,52.24-35.39,8.78,5.52,7.37,7.5C370,150.09,354.9,171.63,350.27,180Zm290.21-32.39a11.29,11.29,0,0,1-1.23-2.78c-3.93-13.28,8.82-39,16.24-38.61C661.71,106.59,656,125.6,640.48,147.62Zm104.84-8c-4.14,8.07-35.47,46.86-47.61,47.78s-16.9-19.28,9.09-50.61,44.88-34.33,49.51-33.49,7.86,5.38,6.66,7.24C763,110.56,749.47,131.52,745.32,139.64Zm94.3-27.45c-4.5-5.08,1.15-11.47,17-20s46.55-14.47,44.17,2c-2,13.81-37.77,25.77-49.24,29.26C845.8,118.28,841.16,114,839.62,112.19Zm-32,83.18c-14.52-6-5.12-29.35,43.33-45.89,3.88,4,6.75,8.11,7.23,12.88C859.74,176,824.31,202.29,807.59,195.37Z"/><path class="cls-2" d="M1516.94,343.64c-.24-.34-.58-.74-.87-1.12C1516.4,342.92,1516.69,343.29,1516.94,343.64Z"/><path class="cls-1" d="M1098.64,275c13.76-3.16,64.27-3.65,86-7.74s44.69-4.71,66.26-7.5,31.23-.56,33.46,0-.55,5.87,6.76,6.93,13.63.94,3.72,2.3-98.92,6.82-110.57,9.3-103.74,16-90.48,13.26,23.18-9.79,15.49-13.26A104.38,104.38,0,0,0,1098.64,275Z"/><path class="cls-1" d="M1365.64,338.73c-.8.26-1.46.53-2.21.79l4,5s1.46-.62,4.24-1.68C1369.83,341.46,1367.8,340.1,1365.64,338.73ZM699.43,379.32,690,395.65a7.54,7.54,0,0,0,.62,1.41c4.1-6.13,8.12-12,12-17.65C700.58,379.41,699.43,379.32,699.43,379.32Z"/><path class="cls-1" d="M1500.27,398.65c-59.17,32.7-149.54,32.7-241,43.51S1058.09,466.74,981.13,489,811.56,512.1,754.64,465.59c-49-40-61.51-63-64-68.53,4.1-6.13,8.12-12,12-17.65h.09c11.21,0,50.83-2.51,107.23-34.5,70.46-39.93,79-103.92-3.58-101.49-86.35,2.52-189.38,45.63-232.49,86C521.57,378.22,586,383.25,586,383.25s-70.42,14.12-70.51-29.6c0-37.16,75.63-81.42,151-107.85s173.15-28.24,213.26-2.38c32.52,20.92,36.62,72.67-27,110.62S715.63,396.4,715.63,396.4C783,479,837.64,485.32,883.35,489s97.39-10.46,152.45-22.68,161.37-27.89,251-33.84,180-22.42,207.35-37.55S1535,358.37,1520,339.39s-39.67-13.32-39.67-13.32c19.51,1.14,30,9.57,34.82,15.4-5.56-5.83-20.08-14.79-56.79-13.55-44.66,1.46-75.9,11.08-86.71,14.91-1.81-1.36-3.84-2.73-6-4.1h.09c37.9-13.19,111-27.62,148.61-12.66C1552.78,341.33,1559.39,365.91,1500.27,398.65Z"/><path class="cls-1" d="M699.43,379.32,690,395.65a7.54,7.54,0,0,0,.62,1.41c4.1-6.13,8.12-12,12-17.65C700.58,379.41,699.43,379.32,699.43,379.32Z"/><path class="cls-1" d="M809.53,268.48c-8.74,4.24-48.27,27.45-106.83,110.93h-.09c-2,0-3.17-.08-3.17-.08L690,395.65a8.56,8.56,0,0,0,.62,1.41c-74.13,111.24-42.05,112.26-35.43,112.26a33.51,33.51,0,0,1-10.94,4,31.56,31.56,0,0,0,19.19-1s-10,9.31-31.2,9.31-32.61-12.14-26.91-36.27,34.11-83,74.22-133.53,28.5-33.58,52.11-59.13C764.17,257.5,809.53,268.48,809.53,268.48Z"/><path class="cls-1" d="M994.37,348.61l-.09.05c-7.55,6.35-24.27,19.06-39,21.44l1.59-4.19A27.36,27.36,0,0,0,958.05,352c-1.85-9.14-9.84-20.21-33.62-10.77,0,0-35.17-1.19-64,37.73-25,33.84-24.62,67.51,11.08,68.21s63-29.74,81-70.07l.62-1.45c9.44-1.68,20.47-5.39,33-11.83h0c.4-.17.8-.4,1.28-.66l10.73-17.78C997.85,345.61,996.49,346.94,994.37,348.61Zm-82.08,71.57c-22.9,19.51-33.84,17.39-38.12,7.81s7.59-32.91,22.06-50.56c8.61-10.46,17.21-13.37,18.18-17.12a25.37,25.37,0,0,0,.8-4.64,98.82,98.82,0,0,0-19.77,13.77c-8.52,8-10.77,12.36-10.77,11.61s4.5-10.55,11.3-16.64c14.82-13.28,22-13.24,25.41-13.37a14.06,14.06,0,0,0-4.06,15.8c2,5.38,10.42,10.06,24.14,9.92C936.3,390.44,927,407.78,912.29,420.18Zm31.51-50.3c-15.62-2.69-13.37-13.68-10.28-20.43,2.47-5.21,12.13-4.63,12.79,3.71C946.49,356.07,945.17,365.2,943.8,369.88Z"/><path class="cls-1" d="M1416.21,285.25c.26-17.61-39.41-22.95-76.74-4.1s-29.25,38-16.24,47.61c1.64,1.19,3.36,2.38,5.08,3.57-14.34,5-20.52,12.44-30.36,19.86-12.27,9.26-45.49,41.87-69.89,40.5-17-1-21.27-13.9-15.89-29.21a109.2,109.2,0,0,0,14.38-2.78c21.32-5.07,63.46-22.41,65.71-44.34s-34.77-24.93-64-6.71c-26.44,16.5-33.32,28.59-43.73,60.1,0,0-6.31,3.26-13.5,11.16s-20.74,21.58-30.41,20.7-2.82-25.37,11-50.44c15.13-27.29,33.3-54.63,49.09-74.79l0,0c3.61-4.64,7.1-8.92,10.41-12.67h0a124.6,124.6,0,0,1,14.42-14.51c17.47-14.12,12.44-15,10.59-15S1221,233,1231.41,230s12.27.58,16.06-3.79-22.5-3.93-33.18,2.21c-8.12,4.67-22.46,15.13-41.26,40.46h0q-4.3,5.82-9,12.78l0,0q-4.76,7.08-9.78,15.42c-28.06,46.51-38.12,76.82-41.65,77.53s-27.84,32.78-40.95,32.43-12.4-6.71,2.34-32,24.18-35.17,23.17-38.52-13.24-9.58-26-8.21,4.24-1.46-10.9,17.12-39.84,60.63-56.21,68.44c-21,10-16.33-6.36.75-31.46s23.82-33.27,22.68-38.48-2.87-13-29.21-9.66c.57,3.17-1,8.25-3.84,14.29-2.16,4.59-5,9.8-8.17,15.18h0c-5.34,9.09-11.52,18.71-16.55,27C957.7,410.56,957,435.67,981.13,435.1s53.74-42.45,56.88-42.71-1.86,6.61-1.86,12.39S1037.3,423,1058.48,423s48-33.1,49.64-33.85,2.43,2.34,2,3.23S1108.7,415,1129.88,415s52.06-35.34,52.81-35.52,2.39-1.5,3.71,8.38,10.15,16.86,20.43,17.83,26-.22,58.16-21,41.12-32.3,59.48-43.82a88.49,88.49,0,0,1,9.09-5c2.51,1.73,5,3.49,7.32,5.34-6,2.65-16.45,8.12-31.63,18.85-25.68,18.13-29.13,29.78-12.67,41.43s69.19-4.59,81.46-23.83c10-15.62,5.82-25.55-6.4-34.86-1.81-1.37-3.84-2.73-6-4.1-1.11-.75-2.3-1.46-3.49-2.16-4-2.43-7.63-4.77-10.81-7,6.09-1.68,11.47-2.78,16.28-4.9C1378.52,319.93,1415.94,302.85,1416.21,285.25Zm-191.77,57.63c19-22.46,41.43-35.57,49.46-34.47s12.27,9-6,25c-13.41,11.79-39.49,19.2-52.28,22.29A75.2,75.2,0,0,1,1224.44,342.88Zm129.9,19.72c.88,15.84-23.3,28.24-39,29.61s-18.84-10.28-10.41-19.33c6.62-7.1,31.33-21,41.61-26.61C1350.9,350.86,1354,356.11,1354.34,362.6Zm-6.4-35.52c-9.53-7.33-14.16-13.37-13.54-17.16.88-5.34,25-21.85,45.09-24.19s25.55.75,21.58,8.7C1397.5,301.53,1370.67,320,1347.94,327.08Z"/><path class="cls-1" d="M893,582.92c2.78,11.12,27.54,16.33,27.54,16.33s-46.11,2.82-50.39-23.43c-5-30.8,128.84-106.7,456.61-123.91-13.29,1.33-159.3,16.37-273.71,51.89C933,541.05,890.23,571.76,893,582.92Z"/></svg>