<svg id="Layer_1" data-name="Layer 1" xmlns="http://www.w3.org/2000/svg" viewBox="0 0 1543.94 599.33"><defs><style>.cls-1{fill:#45643c;}.cls-2{opacity:0.1;}.cls-3{fill:#93333e;}</style></defs><path class="cls-1" d="M1009.15,169.72c-1.24-20.3-23.34-46.64-86.27-41.92a305.79,305.79,0,0,0-56.12,9.14c-3.22-2.87-6.62-5.83-9.89-8.83,33.19-10.54,64.29-25.77,58.07-44.79-6.44-19.59-44-16.63-76.86.27s-24.54,32.7-13.15,44.35c5.56,5.69,13.28,10.76,19.81,16.06-15.67,5.95-25.68,12.18-30.45,16.19C804,168.93,804,164,803.75,162.49s12.26-18.1,9-16.6-18,13.29-33.36,27.8-25.86,11.17-24-.08,24.27-44.75,30.49-53.09,11-13.24,5.21-18.62-18.1-8.82-18.45-6.62-2.78,8.83-4.81,8.43a8.63,8.63,0,0,0-2-7.5c-1.81-2-22.55-17.52-62,9.88C669,130.36,662.81,154.5,662.81,154.5c-1.9.53-9,.88-15-1.37,20.08-26.47,24.58-44.79,17.43-53.08-8.29-9.67-40.9-5.12-38.78,30.84.66,11.52,4.63,18.58,9.66,22.81a194.11,194.11,0,0,1-19.37,21.49c-32.48,30.76-39.36,23.65-39.27,17.65s9.71-25.5,15.4-37.86,14.34-24.93,8.25-33.22S568,117.21,568,117.21s4.23,3.18,5.56,7S568,143.38,561.5,154.9s-18.27,24-29.7,36.22-29.87,25.9-31.46,17.12,22.95-47.61,32.3-62.08,5.65-26.56-7.19-28-16.11.88-41.39,21.36c-17.83,14.47-36.63,35.25-36.63,35.25l-1.63-1.81s6.93-10.06,18.18-25.19,2.38-22.55-8.25-23-22.11,4.77-22.11,4.77c5.65,2.87,4.72,5.43-7.06,29.21s-22.94,35.7-36.44,48.36-35.57,23.56-25-2.78,38.17-51.89,37.24-55.82-14.87-12.09-17.74-12.79-8.73,6.83-8.73,6.83c-.18-4.41-22.68-28.81-63.59.62S261,195.93,261,195.93C200.2,252,144.2,276.46,107.27,283.21s-77.35-1-65.7-58.51,51.54-90.23,51.54-90.23c-42.63,53.08-38.88,84.36-38.88,84.36,19.86-75.36,127.39-174,200.64-193.18s72.19,9.67,31.07,48.94-82.17,44.83-82.17,44.83c45.89,38.7,143-30.18,134.81-82.6s-80.31-42-150.25-11.17-137.85,97.92-165.07,145-48.54,133,45.14,133c97.43,0,182.32-84.63,185.9-86.79s6.53-6,4.67,5.16,7.59,23.08,24.94,23.08,35.83-14.52,45.49-26.79c5.6-7.06,10.54-10.45,6.93-2.25s.13,18,16.5,19.37,34.46-14.6,36.05-16.28,7.68-7.06,6.8-3.35-5.17,7.94-.45,10.85,20.08,6.4,21.27,3.14S429.34,205.86,434,201s52.95-55.37,61.86-60.93,10.46-3,9.71-.53-3.36,8.73-20.08,38.47-15.62,48.85,7.59,48.85,58.55-45,58.55-45l3.71.22s0,2-2.16,7.45-4.94,28.64,19,25.64,35.38-14.87,64.6-48.58c2.51-2.91,4.81-5.69,7-8.38a38,38,0,0,0,18.49,1.19s.66,2.95-1.85,15.53,6.09,26,23.69,27.89,41.66-24.32,43.77-27.45,8.83-5.25,4.59.53-5.91,19.86,14.3,22.15,43.82-25.37,46.33-26.87,3.18-.35,3.58.4-3,4.19-5.21,16,11.3,21.71,26.92,21.71,33.58-1,52.81-18.31,17.12-34.11,10.15-40.82c-1.59-1.5-4.37-4-7.76-7.15.44-.13,1-.17,1.45-.31,69.28-16.06,124-1,120.69,32.7-3.14,32.7-41.57,51-44,52.07C987.4,221.44,1010.43,190,1009.15,169.72ZM350.27,180c-4.63,8.34-39.58,48.36-53.17,49.29s-15.8-19,13.24-51.32,47-36.31,52.24-35.39,8.78,5.52,7.37,7.51C370,150.09,354.9,171.62,350.27,180Zm290.21-32.38a11.46,11.46,0,0,1-1.23-2.78c-3.93-13.29,8.82-39,16.24-38.61C661.71,106.58,656,125.6,640.48,147.62Zm104.84-8c-4.14,8.07-35.47,46.86-47.61,47.79s-16.9-19.29,9.09-50.62,44.88-34.32,49.51-33.49,7.86,5.39,6.66,7.24C763,110.55,749.47,131.51,745.32,139.63Zm94.3-27.45c-4.5-5.07,1.15-11.47,17-19.94s46.55-14.48,44.17,2c-2,13.82-37.77,25.77-49.24,29.26C845.8,118.27,841.16,114,839.62,112.18Zm-32,83.18c-14.52-6-5.12-29.34,43.33-45.89,3.88,4,6.75,8.12,7.23,12.88C859.74,176,824.31,202.29,807.59,195.36Z"/><path class="cls-2" d="M1516.94,343.64c-.24-.34-.58-.75-.87-1.12C1516.4,342.91,1516.69,343.29,1516.94,343.64Z"/><path class="cls-3" d="M1098.64,275c13.76-3.16,64.27-3.66,86-7.75s44.69-4.71,66.26-7.5,31.23-.56,33.46,0-.55,5.88,6.76,6.94,13.63.93,3.72,2.3-98.92,6.81-110.57,9.29-103.74,16-90.48,13.26,23.18-9.79,15.49-13.26A103.61,103.61,0,0,0,1098.64,275Z"/><path class="cls-3" d="M1365.64,338.72c-.8.27-1.46.53-2.21.8l4,5s1.46-.62,4.24-1.67C1369.83,341.46,1367.8,340.09,1365.64,338.72Zm-666.21,40.6L690,395.64a7.75,7.75,0,0,0,.62,1.42c4.1-6.14,8.12-12.05,12-17.65C700.58,379.41,699.43,379.32,699.43,379.32Z"/><path class="cls-3" d="M1500.27,398.65c-59.17,32.69-149.54,32.69-241,43.51S1058.09,466.73,981.13,489s-169.57,23.07-226.49-23.43c-49-40-61.51-63-64-68.53,4.1-6.13,8.12-12.05,12-17.65h.09c11.21,0,50.83-2.52,107.23-34.51,70.46-39.93,79-103.91-3.58-101.49C720,245.93,617,289,573.86,329.37,521.57,378.22,586,383.25,586,383.25s-70.42,14.12-70.51-29.61c0-37.15,75.63-81.41,151-107.84s173.15-28.24,213.26-2.39c32.52,20.92,36.62,72.68-27,110.63S715.63,396.4,715.63,396.4C783,479,837.64,485.31,883.35,489s97.39-10.46,152.45-22.68,161.37-27.89,251-33.85,180-22.41,207.35-37.55S1535,358.36,1520,339.39s-39.67-13.33-39.67-13.33c19.51,1.15,30,9.58,34.82,15.4-5.56-5.82-20.08-14.78-56.79-13.55-44.66,1.46-75.9,11.08-86.71,14.92-1.81-1.37-3.84-2.74-6-4.1h.09c37.9-13.2,111-27.63,148.61-12.67C1552.78,341.33,1559.39,365.91,1500.27,398.65Z"/><path class="cls-3" d="M699.43,379.32,690,395.64a7.75,7.75,0,0,0,.62,1.42c4.1-6.14,8.12-12.05,12-17.65C700.58,379.41,699.43,379.32,699.43,379.32Z"/><path class="cls-3" d="M809.53,268.48c-8.74,4.23-48.27,27.44-106.83,110.93h-.09c-2,0-3.17-.09-3.17-.09L690,395.65a9,9,0,0,0,.62,1.41c-74.13,111.24-42.05,112.25-35.43,112.25a33.64,33.64,0,0,1-10.94,4,31.52,31.52,0,0,0,19.19-1s-10,9.31-31.2,9.31-32.61-12.13-26.91-36.27,34.11-83,74.22-133.52,28.5-33.58,52.11-59.13C764.17,257.49,809.53,268.48,809.53,268.48Z"/><path class="cls-3" d="M994.37,348.61l-.09,0c-7.55,6.35-24.27,19.06-39,21.45l1.59-4.2A27.36,27.36,0,0,0,958.05,352c-1.85-9.13-9.84-20.21-33.62-10.77,0,0-35.17-1.19-64,37.73-25,33.84-24.62,67.51,11.08,68.22s63-29.74,81-70.07l.62-1.46c9.44-1.68,20.47-5.38,33-11.82h0c.4-.18.8-.4,1.28-.67l10.73-17.78C997.85,345.61,996.49,346.93,994.37,348.61Zm-82.08,71.57c-22.9,19.5-33.84,17.38-38.12,7.81s7.59-32.92,22.06-50.57c8.61-10.46,17.21-13.37,18.18-17.12a25.19,25.19,0,0,0,.8-4.63,98.54,98.54,0,0,0-19.77,13.76c-8.52,8-10.77,12.36-10.77,11.61s4.5-10.55,11.3-16.64c14.82-13.28,22-13.23,25.41-13.37a14.06,14.06,0,0,0-4.06,15.8c2,5.38,10.42,10.06,24.14,9.93C936.3,390.44,927,407.78,912.29,420.18Zm31.51-50.31c-15.62-2.69-13.37-13.67-10.28-20.43,2.47-5.2,12.13-4.63,12.79,3.71C946.49,356.06,945.17,365.2,943.8,369.87Z"/><path class="cls-3" d="M1416.21,285.24c.26-17.6-39.41-22.94-76.74-4.1s-29.25,38-16.24,47.61c1.64,1.19,3.36,2.38,5.08,3.57-14.34,5-20.52,12.45-30.36,19.86-12.27,9.27-45.49,41.88-69.89,40.51-17-1-21.27-13.9-15.89-29.21a111,111,0,0,0,14.38-2.78c21.32-5.08,63.46-22.42,65.71-44.35s-34.77-24.93-64-6.71c-26.44,16.51-33.32,28.6-43.73,60.1,0,0-6.31,3.27-13.5,11.17s-20.74,21.57-30.41,20.69-2.82-25.37,11-50.43c15.13-27.3,33.3-54.64,49.09-74.8l0,0c3.61-4.63,7.1-8.91,10.41-12.67a124.57,124.57,0,0,1,14.43-14.51c17.47-14.12,12.44-15.05,10.59-15.05s-15.22-1.1-4.81-4.1,12.27.57,16.06-3.8-22.5-3.92-33.18,2.21c-8.12,4.68-22.46,15.13-41.26,40.46l0,0c-2.87,3.87-5.86,8.14-9,12.77v0c-3.18,4.71-6.43,9.87-9.79,15.42-28.06,46.51-38.12,76.82-41.65,77.53s-27.84,32.79-40.95,32.43-12.4-6.7,2.34-32,24.18-35.17,23.17-38.52-13.24-9.58-26-8.21,4.24-1.45-10.9,17.12-39.84,60.63-56.21,68.44c-21,10-16.33-6.35.75-31.46s23.82-33.27,22.68-38.48-2.87-13-29.21-9.66c.57,3.18-1,8.25-3.84,14.3-2.16,4.59-5,9.79-8.17,15.18h0c-5.34,9.09-11.52,18.7-16.55,27-11.91,19.73-12.66,44.84,11.52,44.26s53.74-42.45,56.88-42.71-1.86,6.62-1.86,12.4S1037.3,423,1058.48,423s48-33.09,49.64-33.84,2.43,2.34,2,3.22S1108.7,415,1129.88,415s52.06-35.34,52.81-35.52,2.39-1.5,3.71,8.39,10.15,16.85,20.43,17.82,26-.22,58.16-21,41.12-32.3,59.48-43.82a88.31,88.31,0,0,1,9.09-5c2.51,1.72,5,3.48,7.32,5.34-6,2.64-16.45,8.12-31.63,18.84-25.68,18.13-29.13,29.78-12.67,41.43s69.19-4.59,81.46-23.83c10-15.62,5.82-25.54-6.4-34.85-1.81-1.37-3.84-2.74-6-4.11-1.11-.75-2.3-1.45-3.49-2.16-4-2.43-7.63-4.77-10.81-7,6.09-1.67,11.47-2.78,16.28-4.89C1378.52,319.92,1415.94,302.85,1416.21,285.24Zm-191.77,57.63c19-22.46,41.43-35.57,49.46-34.46s12.27,9-6,25c-13.41,11.78-39.49,19.19-52.28,22.28A75.2,75.2,0,0,1,1224.44,342.87Zm129.9,19.72c.88,15.84-23.3,28.24-39,29.61s-18.84-10.28-10.41-19.32c6.62-7.11,31.33-21,41.61-26.61C1350.9,350.86,1354,356.11,1354.34,362.59Zm-6.4-35.52c-9.53-7.32-14.16-13.37-13.54-17.16.88-5.34,25-21.84,45.09-24.18s25.55.75,21.58,8.69C1397.5,301.52,1370.67,320,1347.94,327.07Z"/><path class="cls-3" d="M893,582.91c2.78,11.12,27.54,16.33,27.54,16.33s-46.11,2.83-50.39-23.43c-5-30.8,128.84-106.69,456.61-123.9-13.29,1.32-159.3,16.37-273.71,51.89C933,541,890.23,571.75,893,582.91Z"/></svg>